<mxfile host="Electron" agent="Mozilla/5.0 (Windows NT 10.0; Win64; x64) AppleWebKit/537.36 (KHTML, like Gecko) draw.io/26.2.2 Chrome/134.0.6998.178 Electron/35.1.2 Safari/537.36" version="26.2.2">
  <diagram name="20250316_構想設計" id="vVwLVF1qKT9vp77RKcbo">
    <mxGraphModel dx="828" dy="2054" grid="1" gridSize="10" guides="1" tooltips="1" connect="1" arrows="1" fold="1" page="1" pageScale="1" pageWidth="1169" pageHeight="827" math="0" shadow="0">
      <root>
        <mxCell id="AfMFDSuWOlXhKq_SSR3L-0" />
        <mxCell id="AfMFDSuWOlXhKq_SSR3L-1" parent="AfMFDSuWOlXhKq_SSR3L-0" />
        <mxCell id="AfMFDSuWOlXhKq_SSR3L-2" value="&lt;font style=&quot;font-size: 17px;&quot;&gt;三井住友銀行_八景店　（kaz)&lt;/font&gt;" style="rounded=0;whiteSpace=wrap;html=1;fontStyle=0" parent="AfMFDSuWOlXhKq_SSR3L-1" vertex="1">
          <mxGeometry x="2200" y="-683" width="320" height="40" as="geometry" />
        </mxCell>
        <mxCell id="1WlYLgOskzP3YJ57XljQ-0" value="" style="edgeStyle=orthogonalEdgeStyle;rounded=0;orthogonalLoop=1;jettySize=auto;html=1;" parent="AfMFDSuWOlXhKq_SSR3L-1" source="AfMFDSuWOlXhKq_SSR3L-3" target="AfMFDSuWOlXhKq_SSR3L-15" edge="1">
          <mxGeometry relative="1" as="geometry" />
        </mxCell>
        <mxCell id="AfMFDSuWOlXhKq_SSR3L-3" value="&lt;font style=&quot;font-size: 17px;&quot;&gt;三井住友銀行_福岡店　(nao)&lt;/font&gt;" style="rounded=0;whiteSpace=wrap;html=1;fontStyle=0" parent="AfMFDSuWOlXhKq_SSR3L-1" vertex="1">
          <mxGeometry x="2200" y="-194" width="320" height="40" as="geometry" />
        </mxCell>
        <mxCell id="AfMFDSuWOlXhKq_SSR3L-4" value="&lt;font style=&quot;font-size: 17px;&quot;&gt;住信SBI銀行_ネット　(kaz)　&lt;/font&gt;" style="rounded=0;whiteSpace=wrap;html=1;fontStyle=0;fillColor=#99CCFF;" parent="AfMFDSuWOlXhKq_SSR3L-1" vertex="1">
          <mxGeometry x="1560" y="-193" width="319" height="40" as="geometry" />
        </mxCell>
        <mxCell id="AfMFDSuWOlXhKq_SSR3L-5" value="&lt;font style=&quot;font-size: 17px;&quot;&gt;ゆうちょ銀行_店　(nao)&lt;/font&gt;" style="rounded=0;whiteSpace=wrap;html=1;fontStyle=0;fillColor=#f8cecc;strokeColor=#b85450;" parent="AfMFDSuWOlXhKq_SSR3L-1" vertex="1">
          <mxGeometry x="2841" y="-195" width="319" height="40" as="geometry" />
        </mxCell>
        <mxCell id="AfMFDSuWOlXhKq_SSR3L-6" value="" style="endArrow=classic;html=1;rounded=0;strokeColor=default;strokeWidth=1.1811;exitX=0.5;exitY=1;exitDx=0;exitDy=0;entryX=0.5;entryY=0;entryDx=0;entryDy=0;" parent="AfMFDSuWOlXhKq_SSR3L-1" source="AfMFDSuWOlXhKq_SSR3L-12" target="AfMFDSuWOlXhKq_SSR3L-4" edge="1">
          <mxGeometry width="50" height="50" relative="1" as="geometry">
            <mxPoint x="2351" y="-313" as="sourcePoint" />
            <mxPoint x="1959" y="-233" as="targetPoint" />
          </mxGeometry>
        </mxCell>
        <mxCell id="AfMFDSuWOlXhKq_SSR3L-7" value="&lt;font style=&quot;font-size: 14px;&quot;&gt;小遣費_自動振込&lt;/font&gt;&lt;div&gt;&lt;span style=&quot;background-color: light-dark(#ffffff, var(--ge-dark-color, #121212)); color: light-dark(rgb(0, 0, 0), rgb(255, 255, 255));&quot;&gt;&lt;font style=&quot;font-size: 14px;&quot;&gt;（3万円／月）&lt;/font&gt;&lt;/span&gt;&lt;/div&gt;" style="edgeLabel;html=1;align=center;verticalAlign=middle;resizable=0;points=[];fontStyle=1" parent="AfMFDSuWOlXhKq_SSR3L-6" vertex="1" connectable="0">
          <mxGeometry x="0.1196" y="-1" relative="1" as="geometry">
            <mxPoint x="-51" y="-53" as="offset" />
          </mxGeometry>
        </mxCell>
        <mxCell id="AfMFDSuWOlXhKq_SSR3L-8" value="" style="endArrow=classic;html=1;rounded=0;strokeColor=default;strokeWidth=1.1811;entryX=0.5;entryY=0;entryDx=0;entryDy=0;" parent="AfMFDSuWOlXhKq_SSR3L-1" target="AfMFDSuWOlXhKq_SSR3L-5" edge="1">
          <mxGeometry width="50" height="50" relative="1" as="geometry">
            <mxPoint x="2361" y="-313" as="sourcePoint" />
            <mxPoint x="2759" y="-233" as="targetPoint" />
          </mxGeometry>
        </mxCell>
        <mxCell id="AfMFDSuWOlXhKq_SSR3L-9" value="&lt;font style=&quot;font-size: 14px;&quot;&gt;小遣費_自動振込&lt;/font&gt;&lt;div&gt;&lt;font style=&quot;font-size: 14px;&quot;&gt;（3万円／月）&lt;/font&gt;&lt;/div&gt;" style="edgeLabel;html=1;align=center;verticalAlign=middle;resizable=0;points=[];fontStyle=1" parent="AfMFDSuWOlXhKq_SSR3L-8" vertex="1" connectable="0">
          <mxGeometry x="0.1196" y="-1" relative="1" as="geometry">
            <mxPoint x="71" y="-54" as="offset" />
          </mxGeometry>
        </mxCell>
        <mxCell id="AfMFDSuWOlXhKq_SSR3L-10" value="" style="endArrow=classic;html=1;rounded=0;strokeColor=default;strokeWidth=1.1811;exitX=0.5;exitY=1;exitDx=0;exitDy=0;entryX=0.5;entryY=0;entryDx=0;entryDy=0;" parent="AfMFDSuWOlXhKq_SSR3L-1" target="AfMFDSuWOlXhKq_SSR3L-3" edge="1">
          <mxGeometry width="50" height="50" relative="1" as="geometry">
            <mxPoint x="2361" y="-313" as="sourcePoint" />
            <mxPoint x="2360" y="-203" as="targetPoint" />
          </mxGeometry>
        </mxCell>
        <mxCell id="AfMFDSuWOlXhKq_SSR3L-11" value="&lt;div&gt;&lt;font style=&quot;font-size: 14px;&quot;&gt;共通費_手動振込&lt;/font&gt;&lt;/div&gt;&lt;div&gt;&lt;font style=&quot;font-size: 14px;&quot;&gt;（350万円＋α／年）&lt;/font&gt;&lt;/div&gt;" style="edgeLabel;html=1;align=center;verticalAlign=middle;resizable=0;points=[];fontStyle=1" parent="AfMFDSuWOlXhKq_SSR3L-10" vertex="1" connectable="0">
          <mxGeometry x="0.1196" y="-1" relative="1" as="geometry">
            <mxPoint x="-70" y="5" as="offset" />
          </mxGeometry>
        </mxCell>
        <mxCell id="AfMFDSuWOlXhKq_SSR3L-12" value="&lt;div&gt;&lt;div&gt;&lt;div style=&quot;&quot;&gt;&lt;u style=&quot;&quot;&gt;&lt;font style=&quot;font-size: 16px;&quot;&gt;メイン_Olive口座&lt;/font&gt;&lt;/u&gt;&lt;div style=&quot;text-align: center;&quot;&gt;&lt;div&gt;&lt;font style=&quot;font-size: 14px;&quot;&gt;　&lt;/font&gt;&lt;/div&gt;&lt;div&gt;&lt;font style=&quot;font-size: 14px;&quot;&gt;（収入＆分配の窓口用）&lt;/font&gt;&lt;/div&gt;&lt;div&gt;&lt;font style=&quot;font-size: 14px;&quot;&gt;&lt;br&gt;&lt;/font&gt;&lt;/div&gt;&lt;/div&gt;&lt;/div&gt;&lt;div style=&quot;text-align: left;&quot;&gt;【年収入】&lt;span style=&quot;white-space: pre;&quot;&gt;&#x9;&lt;/span&gt;&lt;span style=&quot;background-color: transparent; color: light-dark(rgb(0, 0, 0), rgb(255, 255, 255));&quot;&gt;&amp;nbsp; (336)&lt;/span&gt;&lt;/div&gt;&lt;div style=&quot;text-align: left;&quot;&gt;&lt;span style=&quot;background-color: transparent; color: light-dark(rgb(0, 0, 0), rgb(255, 255, 255));&quot;&gt;・雑収入：利子､特許報奨金&lt;/span&gt;&lt;span style=&quot;background-color: transparent; color: light-dark(rgb(0, 0, 0), rgb(255, 255, 255)); white-space: pre;&quot;&gt;&#x9;&lt;/span&gt;&lt;span style=&quot;background-color: transparent; color: rgb(255, 51, 51);&quot;&gt;　　&amp;nbsp;&lt;span style=&quot;white-space: pre;&quot;&gt;&#x9;&lt;/span&gt;&lt;span style=&quot;white-space: pre;&quot;&gt;&#x9;&amp;nbsp;&lt;/span&gt;&amp;nbsp; &amp;nbsp;&amp;nbsp;&lt;/span&gt;&lt;span style=&quot;background-color: transparent; color: light-dark(rgb(0, 0, 0), rgb(255, 255, 255));&quot;&gt;（13）&lt;/span&gt;&lt;/div&gt;&lt;div style=&quot;text-align: left;&quot;&gt;・年金：退職金､国民＆厚生､全労済&lt;span style=&quot;white-space: pre;&quot;&gt;&#x9;&lt;/span&gt;&lt;span style=&quot;background-color: transparent; color: rgb(255, 51, 51);&quot;&gt;　　&amp;nbsp; &amp;nbsp; &amp;nbsp;&amp;nbsp;&lt;/span&gt;&lt;span style=&quot;background-color: transparent; color: light-dark(rgb(0, 0, 0), rgb(255, 255, 255));&quot;&gt;（298）&lt;/span&gt;&lt;/div&gt;&lt;div style=&quot;text-align: left;&quot;&gt;・株配当：住友金属､東北電力&lt;span style=&quot;white-space: pre;&quot;&gt;&#x9;&lt;/span&gt;&lt;span style=&quot;background-color: transparent; color: rgb(255, 51, 51);&quot;&gt;　　&amp;nbsp;&lt;span style=&quot;white-space: pre;&quot;&gt;&#x9;&lt;/span&gt;&amp;nbsp; &amp;nbsp; &amp;nbsp;&lt;/span&gt;&lt;span style=&quot;background-color: transparent; color: light-dark(rgb(0, 0, 0), rgb(255, 255, 255));&quot;&gt;（4）&lt;/span&gt;&lt;/div&gt;&lt;div style=&quot;text-align: left;&quot;&gt;・保険受：明治安田&lt;span style=&quot;white-space: pre;&quot;&gt;&#x9;&lt;/span&gt;&lt;span style=&quot;background-color: transparent; color: rgb(255, 51, 51);&quot;&gt;　　&amp;nbsp;&lt;span style=&quot;white-space: pre;&quot;&gt;&#x9;&lt;/span&gt;&lt;span style=&quot;white-space: pre;&quot;&gt;&#x9;&lt;/span&gt;&lt;span style=&quot;white-space: pre;&quot;&gt;&#x9;&lt;/span&gt;&amp;nbsp; &amp;nbsp; &amp;nbsp;&lt;/span&gt;&lt;span style=&quot;background-color: transparent; color: light-dark(rgb(0, 0, 0), rgb(255, 255, 255));&quot;&gt;（21）&lt;/span&gt;&lt;/div&gt;&lt;div style=&quot;text-align: left;&quot;&gt;&lt;span style=&quot;color: rgb(255, 51, 51);&quot;&gt;　　&amp;nbsp;&lt;/span&gt;&lt;br&gt;&lt;/div&gt;&lt;div style=&quot;text-align: left;&quot;&gt;【年支出】&lt;span style=&quot;background-color: transparent; color: rgb(255, 51, 51);&quot;&gt;　&amp;nbsp;&lt;/span&gt;&lt;span style=&quot;background-color: transparent; color: light-dark(rgb(0, 0, 0), rgb(255, 255, 255)); white-space: pre;&quot;&gt;&#x9;&amp;nbsp;&lt;/span&gt;&lt;span style=&quot;background-color: transparent; color: light-dark(rgb(0, 0, 0), rgb(255, 255, 255));&quot;&gt;&amp;nbsp;(648+α)&lt;/span&gt;&lt;/div&gt;&lt;div style=&quot;text-align: left;&quot;&gt;・光熱費：電気､ガス､水道&lt;span style=&quot;white-space: pre;&quot;&gt;&#x9;&lt;/span&gt;&lt;span style=&quot;background-color: transparent; color: rgb(255, 51, 51);&quot;&gt;　　&amp;nbsp;&lt;/span&gt;&lt;span style=&quot;background-color: transparent; color: light-dark(rgb(0, 0, 0), rgb(255, 255, 255));&quot;&gt;&amp;nbsp;&lt;span style=&quot;white-space: pre;&quot;&gt;&#x9;&lt;/span&gt;&lt;span style=&quot;white-space: pre;&quot;&gt;&#x9;&lt;/span&gt;&amp;nbsp; &amp;nbsp; &amp;nbsp;（23&lt;/span&gt;&lt;span style=&quot;background-color: initial; color: light-dark(rgb(0, 0, 0), rgb(255, 255, 255));&quot;&gt;）&lt;/span&gt;&lt;/div&gt;&lt;div style=&quot;text-align: left;&quot;&gt;・契約費：Office365&lt;span style=&quot;background-color: transparent; color: light-dark(rgb(0, 0, 0), rgb(255, 255, 255));&quot;&gt;､墓地管理費&lt;/span&gt;&lt;span style=&quot;background-color: transparent; color: light-dark(rgb(0, 0, 0), rgb(255, 255, 255));&quot;&gt;　&lt;/span&gt;&lt;span style=&quot;background-color: transparent; color: rgb(255, 51, 51);&quot;&gt;　　&amp;nbsp;&lt;span style=&quot;white-space: pre;&quot;&gt;&#x9;&lt;/span&gt;&amp;nbsp; &amp;nbsp; &amp;nbsp;&lt;/span&gt;&lt;span style=&quot;background-color: transparent; color: light-dark(rgb(0, 0, 0), rgb(255, 255, 255));&quot;&gt;（1）&lt;/span&gt;&lt;/div&gt;&lt;div style=&quot;text-align: left;&quot;&gt;&lt;span style=&quot;background-color: transparent; color: light-dark(rgb(0, 0, 0), rgb(255, 255, 255));&quot;&gt;・住居費：マンション&lt;/span&gt;&lt;span style=&quot;background-color: transparent; color: light-dark(rgb(0, 0, 0), rgb(255, 255, 255));&quot;&gt;管理費&lt;span style=&quot;white-space: pre;&quot;&gt;&#x9;&lt;span style=&quot;white-space: pre;&quot;&gt;&#x9;&lt;/span&gt;&lt;/span&gt;&lt;span style=&quot;white-space: pre;&quot;&gt;&#x9;&lt;/span&gt;&lt;span style=&quot;white-space: pre;&quot;&gt;&#x9;&lt;/span&gt;&amp;nbsp; &amp;nbsp; &amp;nbsp;（&lt;/span&gt;&lt;span style=&quot;background-color: transparent; color: light-dark(rgb(0, 0, 0), rgb(255, 255, 255));&quot;&gt;60）&lt;/span&gt;&lt;br&gt;&lt;/div&gt;&lt;/div&gt;&lt;div style=&quot;text-align: left;&quot;&gt;・税金：県民税､市民税､固定資産税､介護保険&amp;nbsp; &amp;nbsp; （&lt;span style=&quot;background-color: transparent; color: light-dark(rgb(0, 0, 0), rgb(255, 255, 255));&quot;&gt;30)&lt;/span&gt;&lt;/div&gt;&lt;div style=&quot;text-align: left;&quot;&gt;&lt;span style=&quot;background-color: transparent; color: light-dark(rgb(0, 0, 0), rgb(255, 255, 255));&quot;&gt;・保険払：アクサ､アフラック､パナ健､プルデン&lt;/span&gt;&lt;span style=&quot;background-color: transparent; color: light-dark(rgb(0, 0, 0), rgb(255, 255, 255));&quot;&gt;（60&lt;/span&gt;&lt;span style=&quot;background-color: transparent; color: light-dark(rgb(0, 0, 0), rgb(255, 255, 255));&quot;&gt;）&lt;/span&gt;&lt;br&gt;&lt;/div&gt;&lt;/div&gt;&lt;div style=&quot;text-align: left;&quot;&gt;&lt;span style=&quot;background-color: transparent; color: light-dark(rgb(0, 0, 0), rgb(255, 255, 255));&quot;&gt;・年会費：松愛会､三井住友カード､セゾンCine&amp;nbsp; （2）&lt;/span&gt;&lt;/div&gt;&lt;div style=&quot;text-align: left;&quot;&gt;&lt;div&gt;&lt;span style=&quot;background-color: initial;&quot;&gt;&lt;font style=&quot;color: light-dark(rgb(255, 51, 51), rgb(255, 255, 255));&quot;&gt;・小遣費&amp;nbsp; &amp;nbsp; &amp;nbsp;　&lt;span style=&quot;white-space: pre;&quot;&gt;&#x9;&lt;/span&gt;&lt;span style=&quot;white-space: pre;&quot;&gt;&#x9;&lt;/span&gt;&lt;span style=&quot;white-space: pre;&quot;&gt;&#x9;&lt;/span&gt;&lt;span style=&quot;white-space: pre;&quot;&gt;&#x9;&lt;/span&gt;&lt;span style=&quot;white-space: pre;&quot;&gt;&#x9;&lt;/span&gt;&lt;span style=&quot;white-space: pre;&quot;&gt;&#x9;&lt;/span&gt;&lt;span style=&quot;white-space: pre;&quot;&gt;&#x9;&lt;/span&gt;&amp;nbsp; &amp;nbsp; &amp;nbsp; （72）&lt;/font&gt;&lt;/span&gt;&lt;/div&gt;&lt;/div&gt;&lt;div style=&quot;text-align: left;&quot;&gt;&lt;span style=&quot;background-color: transparent; color: light-dark(rgb(0, 0, 0), rgb(255, 255, 255));&quot;&gt;＊共通費&lt;span style=&quot;white-space: pre;&quot;&gt;&#x9;&lt;/span&gt;&amp;nbsp; &amp;nbsp; &amp;nbsp; &amp;nbsp;&lt;span style=&quot;white-space: pre;&quot;&gt;&#x9;&lt;/span&gt;&lt;span style=&quot;white-space: pre;&quot;&gt;&#x9;&lt;/span&gt;&lt;span style=&quot;white-space: pre;&quot;&gt;&#x9;&lt;/span&gt;&lt;span style=&quot;white-space: pre;&quot;&gt;&#x9;&lt;/span&gt;&lt;span style=&quot;white-space: pre;&quot;&gt;&#x9;&lt;/span&gt;&lt;span style=&quot;white-space: pre;&quot;&gt;&#x9;&lt;/span&gt;&lt;span style=&quot;white-space: pre;&quot;&gt;&#x9;&lt;/span&gt;&amp;nbsp; &amp;nbsp;&amp;nbsp; &amp;nbsp; &amp;nbsp;(350+α)&lt;/span&gt;&lt;/div&gt;" style="rounded=0;whiteSpace=wrap;html=1;align=center;" parent="AfMFDSuWOlXhKq_SSR3L-1" vertex="1">
          <mxGeometry x="2200" y="-643" width="320" height="330" as="geometry" />
        </mxCell>
        <mxCell id="AfMFDSuWOlXhKq_SSR3L-13" value="&lt;div style=&quot;&quot;&gt;&lt;u style=&quot;&quot;&gt;&lt;font style=&quot;font-size: 16px; color: rgb(0, 0, 0);&quot;&gt;kaz口座&lt;/font&gt;&lt;/u&gt;&lt;div style=&quot;text-align: center;&quot;&gt;&lt;div&gt;&lt;font style=&quot;font-size: 14px; color: rgb(0, 0, 0);&quot;&gt;　&lt;/font&gt;&lt;/div&gt;&lt;div&gt;&lt;font style=&quot;font-size: 14px; color: rgb(0, 0, 0);&quot;&gt;（専用小遣用）&lt;/font&gt;&lt;/div&gt;&lt;/div&gt;&lt;/div&gt;&lt;div style=&quot;text-align: left;&quot;&gt;&lt;font style=&quot;color: rgb(0, 0, 0);&quot;&gt;&lt;br&gt;&lt;/font&gt;&lt;/div&gt;&lt;div style=&quot;text-align: left;&quot;&gt;&lt;font style=&quot;color: rgb(0, 0, 0);&quot;&gt;【年収入】&lt;span style=&quot;white-space: pre;&quot;&gt;&#x9;&lt;/span&gt;（36）&lt;/font&gt;&lt;/div&gt;&lt;div style=&quot;text-align: left;&quot;&gt;&lt;font style=&quot;color: rgb(0, 0, 0);&quot;&gt;・自動振込&lt;/font&gt;&lt;/div&gt;&lt;div style=&quot;text-align: left;&quot;&gt;&lt;font style=&quot;color: rgb(0, 0, 0);&quot;&gt;&lt;br&gt;&lt;/font&gt;&lt;/div&gt;&lt;div style=&quot;text-align: left;&quot;&gt;&lt;font style=&quot;color: rgb(0, 0, 0);&quot;&gt;【年支出】&lt;span style=&quot;white-space: pre;&quot;&gt;&#x9;&lt;/span&gt;（36）&lt;/font&gt;&lt;/div&gt;&lt;div style=&quot;text-align: left;&quot;&gt;&lt;font style=&quot;color: rgb(0, 0, 0);&quot;&gt;&lt;span style=&quot;background-color: transparent;&quot;&gt;・交際費&lt;/span&gt;：&lt;span style=&quot;background-color: transparent;&quot;&gt;飲み会&lt;span style=&quot;white-space: pre;&quot;&gt;&#x9;&lt;/span&gt;&lt;span style=&quot;white-space: pre;&quot;&gt;&#x9;&lt;/span&gt;&lt;span style=&quot;white-space: pre;&quot;&gt;&#x9;&lt;/span&gt;（6）&lt;/span&gt;&lt;br&gt;&lt;/font&gt;&lt;/div&gt;&lt;div style=&quot;text-align: left;&quot;&gt;&lt;font style=&quot;color: rgb(0, 0, 0);&quot;&gt;&lt;span style=&quot;background-color: transparent;&quot;&gt;・年会費：&lt;/span&gt;&lt;span style=&quot;background-color: transparent;&quot;&gt;京急､Amazon　&lt;span style=&quot;white-space: pre;&quot;&gt;&#x9;&lt;/span&gt;（6）&lt;/span&gt;&lt;/font&gt;&lt;/div&gt;&lt;div style=&quot;text-align: left;&quot;&gt;&lt;font style=&quot;color: rgb(0, 0, 0);&quot;&gt;&lt;span style=&quot;background-color: transparent;&quot;&gt;・その他&lt;span style=&quot;white-space: pre;&quot;&gt;&#x9;&lt;/span&gt;&lt;span style=&quot;white-space: pre;&quot;&gt;&#x9;&lt;/span&gt;&lt;span style=&quot;white-space: pre;&quot;&gt;&#x9;&lt;/span&gt;&lt;span style=&quot;white-space: pre;&quot;&gt;&#x9;&lt;/span&gt;&lt;span style=&quot;white-space: pre;&quot;&gt;&#x9;&lt;/span&gt;（24）&lt;/span&gt;&lt;/font&gt;&lt;/div&gt;&lt;div&gt;&lt;div style=&quot;text-align: left;&quot;&gt;&lt;div style=&quot;text-align: center;&quot;&gt;&lt;div&gt;&lt;div style=&quot;text-align: left;&quot;&gt;&lt;span style=&quot;background-color: transparent;&quot;&gt;&lt;span style=&quot;white-space: pre;&quot;&gt;&lt;span style=&quot;white-space: pre;&quot;&gt;&#x9;&lt;/span&gt;&lt;/span&gt;外食費&lt;span style=&quot;white-space: pre;&quot;&gt;&#x9;&lt;span style=&quot;white-space: pre;&quot;&gt;&#x9;&lt;/span&gt;&lt;/span&gt;（10）&lt;/span&gt;&lt;/div&gt;&lt;/div&gt;&lt;div&gt;&lt;div style=&quot;text-align: left;&quot;&gt;&lt;span style=&quot;color: light-dark(rgb(0, 0, 0), rgb(0, 0, 0)); background-color: transparent;&quot;&gt;&lt;span style=&quot;white-space: pre;&quot;&gt;&#x9;&lt;/span&gt;美容費&lt;span style=&quot;white-space: pre;&quot;&gt;&#x9;&lt;span style=&quot;white-space: pre;&quot;&gt;&#x9;&lt;/span&gt;&lt;/span&gt;（1&lt;/span&gt;&lt;span style=&quot;color: light-dark(rgb(0, 0, 0), rgb(0, 0, 0)); background-color: transparent;&quot;&gt;）&lt;/span&gt;&lt;/div&gt;&lt;div style=&quot;text-align: left;&quot;&gt;&lt;span style=&quot;color: light-dark(rgb(0, 0, 0), rgb(0, 0, 0)); background-color: transparent;&quot;&gt;&lt;span style=&quot;white-space: pre;&quot;&gt;&#x9;&lt;/span&gt;教養娯楽費&lt;/span&gt;&lt;span style=&quot;color: light-dark(rgb(0, 0, 0), rgb(0, 0, 0)); background-color: transparent; white-space: pre;&quot;&gt;&#x9;&lt;/span&gt;&lt;span style=&quot;color: light-dark(rgb(0, 0, 0), rgb(0, 0, 0)); background-color: transparent;&quot;&gt;（1）&lt;/span&gt;&lt;/div&gt;&lt;/div&gt;&lt;div style=&quot;text-align: left;&quot;&gt;&lt;font style=&quot;color: rgb(0, 0, 0);&quot;&gt;&lt;span style=&quot;background-color: transparent;&quot;&gt;&lt;span style=&quot;white-space: pre;&quot;&gt;&#x9;&lt;/span&gt;日用費&lt;/span&gt;&lt;span style=&quot;background-color: transparent; white-space: pre;&quot;&gt;&lt;span style=&quot;white-space: pre;&quot;&gt;&#x9;&lt;/span&gt;&lt;span style=&quot;white-space: pre;&quot;&gt;&#x9;&lt;/span&gt;&lt;/span&gt;&lt;span style=&quot;background-color: transparent;&quot;&gt;（1）&lt;/span&gt;&lt;/font&gt;&lt;/div&gt;&lt;div&gt;&lt;div style=&quot;text-align: left;&quot;&gt;&lt;span style=&quot;color: light-dark(rgb(0, 0, 0), rgb(0, 0, 0)); background-color: transparent;&quot;&gt;&lt;span style=&quot;white-space: pre;&quot;&gt;&#x9;&lt;/span&gt;不明金&lt;/span&gt;&lt;span style=&quot;color: light-dark(rgb(0, 0, 0), rgb(0, 0, 0)); background-color: transparent; white-space: pre;&quot;&gt;&#x9;&lt;span style=&quot;white-space: pre;&quot;&gt;&#x9;&lt;/span&gt;（&lt;/span&gt;&lt;span style=&quot;color: light-dark(rgb(0, 0, 0), rgb(0, 0, 0)); background-color: transparent;&quot;&gt;12&lt;/span&gt;&lt;span style=&quot;color: light-dark(rgb(0, 0, 0), rgb(0, 0, 0)); background-color: transparent;&quot;&gt;）&lt;/span&gt;&lt;br&gt;&lt;/div&gt;&lt;/div&gt;&lt;div style=&quot;text-align: left;&quot;&gt;&lt;span style=&quot;background-color: transparent;&quot;&gt;&lt;font style=&quot;color: rgb(0, 0, 0);&quot;&gt;&lt;br&gt;&lt;/font&gt;&lt;/span&gt;&lt;/div&gt;&lt;div style=&quot;text-align: left;&quot;&gt;&lt;span style=&quot;background-color: transparent;&quot;&gt;&lt;font style=&quot;color: rgb(0, 0, 0);&quot;&gt;&lt;br&gt;&lt;/font&gt;&lt;/span&gt;&lt;/div&gt;&lt;div style=&quot;text-align: left;&quot;&gt;&lt;span style=&quot;background-color: transparent;&quot;&gt;&lt;font style=&quot;color: rgb(0, 0, 0);&quot;&gt;&lt;br&gt;&lt;/font&gt;&lt;/span&gt;&lt;/div&gt;&lt;div style=&quot;text-align: left;&quot;&gt;&lt;span style=&quot;background-color: transparent;&quot;&gt;&lt;font style=&quot;color: rgb(0, 0, 0);&quot;&gt;&lt;br&gt;&lt;/font&gt;&lt;/span&gt;&lt;/div&gt;&lt;div style=&quot;text-align: left;&quot;&gt;&lt;span style=&quot;background-color: transparent;&quot;&gt;&lt;font style=&quot;color: rgb(0, 0, 0);&quot;&gt;&lt;br&gt;&lt;/font&gt;&lt;/span&gt;&lt;/div&gt;&lt;div style=&quot;text-align: left;&quot;&gt;&lt;span style=&quot;background-color: transparent;&quot;&gt;&lt;font style=&quot;color: rgb(0, 0, 0);&quot;&gt;&lt;br&gt;&lt;/font&gt;&lt;/span&gt;&lt;/div&gt;&lt;div style=&quot;text-align: left;&quot;&gt;&lt;span style=&quot;background-color: transparent; color: light-dark(rgb(0, 0, 0), rgb(255, 255, 255));&quot;&gt;&lt;br&gt;&lt;/span&gt;&lt;/div&gt;&lt;/div&gt;&lt;/div&gt;&lt;/div&gt;" style="rounded=0;whiteSpace=wrap;html=1;align=center;fillColor=#99CCFF;" parent="AfMFDSuWOlXhKq_SSR3L-1" vertex="1">
          <mxGeometry x="1560" y="-152" width="319" height="359" as="geometry" />
        </mxCell>
        <mxCell id="AfMFDSuWOlXhKq_SSR3L-14" value="&lt;div style=&quot;&quot;&gt;&lt;div&gt;&lt;u&gt;&lt;font style=&quot;font-size: 16px; color: rgb(0, 0, 0);&quot;&gt;nao口座&lt;/font&gt;&lt;/u&gt;&lt;div&gt;&lt;div&gt;&lt;font style=&quot;font-size: 14px; color: rgb(0, 0, 0);&quot;&gt;　&lt;/font&gt;&lt;/div&gt;&lt;div&gt;&lt;font style=&quot;font-size: 14px; color: rgb(0, 0, 0);&quot;&gt;（専用小遣用）&lt;/font&gt;&lt;/div&gt;&lt;/div&gt;&lt;/div&gt;&lt;div style=&quot;text-align: left;&quot;&gt;&lt;font style=&quot;color: rgb(0, 0, 0);&quot;&gt;&lt;br&gt;&lt;/font&gt;&lt;/div&gt;&lt;div style=&quot;text-align: left;&quot;&gt;&lt;font style=&quot;color: rgb(0, 0, 0);&quot;&gt;【年収入】&lt;span style=&quot;white-space: pre;&quot;&gt;&#x9;&lt;/span&gt;（36）&lt;/font&gt;&lt;/div&gt;&lt;div style=&quot;text-align: left;&quot;&gt;&lt;font style=&quot;color: rgb(0, 0, 0);&quot;&gt;・自動振込&lt;/font&gt;&lt;/div&gt;&lt;div style=&quot;text-align: left;&quot;&gt;&lt;br&gt;&lt;/div&gt;&lt;div style=&quot;text-align: left;&quot;&gt;&lt;font style=&quot;color: rgb(0, 0, 0);&quot;&gt;【年支出】&lt;span style=&quot;white-space: pre;&quot;&gt;&#x9;&lt;/span&gt;（36）&lt;/font&gt;&lt;/div&gt;&lt;div style=&quot;text-align: left;&quot;&gt;&lt;font style=&quot;color: rgb(0, 0, 0);&quot;&gt;&lt;span style=&quot;background-color: transparent;&quot;&gt;・交際費&lt;/span&gt;：食事会&lt;span style=&quot;background-color: transparent;&quot;&gt;&lt;span style=&quot;white-space: pre;&quot;&gt;&#x9;&lt;/span&gt;&lt;span style=&quot;white-space: pre;&quot;&gt;&#x9;&lt;/span&gt;&lt;span style=&quot;white-space: pre;&quot;&gt;&#x9;&lt;/span&gt;（6）&lt;/span&gt;&lt;br&gt;&lt;/font&gt;&lt;/div&gt;&lt;div style=&quot;text-align: left;&quot;&gt;&lt;font style=&quot;color: rgb(0, 0, 0);&quot;&gt;&lt;span style=&quot;background-color: transparent;&quot;&gt;・年会費：&lt;span style=&quot;white-space: pre;&quot;&gt;&#x9;&lt;/span&gt;&lt;span style=&quot;white-space: pre;&quot;&gt;&#x9;&lt;/span&gt;&lt;span style=&quot;white-space: pre;&quot;&gt;&#x9;&lt;/span&gt;&lt;/span&gt;&lt;span style=&quot;background-color: transparent;&quot;&gt;　&lt;span style=&quot;white-space: pre;&quot;&gt;&#x9;&lt;/span&gt;（6）&lt;/span&gt;&lt;/font&gt;&lt;/div&gt;&lt;div style=&quot;text-align: left;&quot;&gt;&lt;font style=&quot;color: rgb(0, 0, 0);&quot;&gt;・その他&lt;span style=&quot;white-space: pre;&quot;&gt;&#x9;&lt;/span&gt;&lt;span style=&quot;white-space: pre;&quot;&gt;&#x9;&lt;/span&gt;&lt;span style=&quot;white-space: pre;&quot;&gt;&#x9;&lt;/span&gt;&lt;span style=&quot;white-space: pre;&quot;&gt;&#x9;&lt;/span&gt;&lt;span style=&quot;white-space: pre;&quot;&gt;&#x9;&lt;/span&gt;（24）&lt;/font&gt;&lt;/div&gt;&lt;div&gt;&lt;div style=&quot;text-align: left;&quot;&gt;&lt;div style=&quot;text-align: center;&quot;&gt;&lt;div&gt;&lt;div style=&quot;text-align: left;&quot;&gt;&lt;span style=&quot;background-color: transparent;&quot;&gt;&lt;span style=&quot;white-space: pre;&quot;&gt;&#x9;&lt;/span&gt;外食費&lt;span style=&quot;white-space: pre;&quot;&gt;&#x9;&lt;span style=&quot;white-space: pre;&quot;&gt;&#x9;&lt;span style=&quot;white-space: pre;&quot;&gt;&#x9;&lt;/span&gt;&lt;span style=&quot;white-space: pre;&quot;&gt;&#x9;&lt;/span&gt;&lt;/span&gt;&lt;/span&gt;（10）&lt;/span&gt;&lt;/div&gt;&lt;/div&gt;&lt;div&gt;&lt;div style=&quot;text-align: left;&quot;&gt;&lt;span style=&quot;color: light-dark(rgb(0, 0, 0), rgb(0, 0, 0)); background-color: transparent;&quot;&gt;&lt;span style=&quot;white-space: pre;&quot;&gt;&#x9;&lt;/span&gt;美容費&lt;span style=&quot;white-space: pre;&quot;&gt;&#x9;&lt;span style=&quot;white-space: pre;&quot;&gt;&#x9;&lt;span style=&quot;white-space: pre;&quot;&gt;&#x9;&lt;/span&gt;&lt;span style=&quot;white-space: pre;&quot;&gt;&#x9;&lt;/span&gt;&lt;/span&gt;&lt;/span&gt;（1&lt;/span&gt;&lt;span style=&quot;color: light-dark(rgb(0, 0, 0), rgb(0, 0, 0)); background-color: transparent;&quot;&gt;）&lt;/span&gt;&lt;/div&gt;&lt;div style=&quot;text-align: left;&quot;&gt;&lt;span style=&quot;color: light-dark(rgb(0, 0, 0), rgb(0, 0, 0)); background-color: transparent;&quot;&gt;&lt;span style=&quot;white-space: pre;&quot;&gt;&#x9;&lt;/span&gt;教養娯楽費&lt;/span&gt;&lt;span style=&quot;color: light-dark(rgb(0, 0, 0), rgb(0, 0, 0)); background-color: transparent; white-space: pre;&quot;&gt;&#x9;&lt;span style=&quot;white-space: pre;&quot;&gt;&#x9;&lt;/span&gt;&lt;span style=&quot;white-space: pre;&quot;&gt;&#x9;&lt;/span&gt;&lt;/span&gt;&lt;span style=&quot;color: light-dark(rgb(0, 0, 0), rgb(0, 0, 0)); background-color: transparent;&quot;&gt;（1）&lt;/span&gt;&lt;/div&gt;&lt;/div&gt;&lt;div style=&quot;text-align: left;&quot;&gt;&lt;font style=&quot;color: rgb(0, 0, 0);&quot;&gt;&lt;span style=&quot;background-color: transparent;&quot;&gt;&lt;span style=&quot;white-space: pre;&quot;&gt;&#x9;&lt;/span&gt;日用費&lt;/span&gt;&lt;span style=&quot;background-color: transparent; white-space: pre;&quot;&gt;&#x9;&lt;span style=&quot;white-space: pre;&quot;&gt;&#x9;&lt;span style=&quot;white-space: pre;&quot;&gt;&#x9;&lt;/span&gt;&lt;span style=&quot;white-space: pre;&quot;&gt;&#x9;&lt;/span&gt;&lt;/span&gt;&lt;/span&gt;&lt;span style=&quot;background-color: transparent;&quot;&gt;（1）&lt;/span&gt;&lt;/font&gt;&lt;/div&gt;&lt;div&gt;&lt;div style=&quot;text-align: left;&quot;&gt;&lt;span style=&quot;color: light-dark(rgb(0, 0, 0), rgb(0, 0, 0)); background-color: transparent;&quot;&gt;&lt;span style=&quot;white-space: pre;&quot;&gt;&#x9;&lt;/span&gt;不明金&lt;/span&gt;&lt;span style=&quot;color: light-dark(rgb(0, 0, 0), rgb(0, 0, 0)); background-color: transparent; white-space: pre;&quot;&gt;&#x9;&lt;span style=&quot;white-space: pre;&quot;&gt;&#x9;&lt;span style=&quot;white-space: pre;&quot;&gt;&#x9;&lt;/span&gt;&lt;span style=&quot;white-space: pre;&quot;&gt;&#x9;&lt;/span&gt;&lt;/span&gt;（&lt;/span&gt;&lt;span style=&quot;color: light-dark(rgb(0, 0, 0), rgb(0, 0, 0)); background-color: transparent;&quot;&gt;12&lt;/span&gt;&lt;span style=&quot;color: light-dark(rgb(0, 0, 0), rgb(0, 0, 0)); background-color: transparent;&quot;&gt;）&lt;/span&gt;&lt;br&gt;&lt;/div&gt;&lt;/div&gt;&lt;div style=&quot;text-align: left;&quot;&gt;&lt;span style=&quot;background-color: transparent;&quot;&gt;&lt;br&gt;&lt;/span&gt;&lt;/div&gt;&lt;div style=&quot;text-align: left;&quot;&gt;&lt;span style=&quot;background-color: transparent;&quot;&gt;&lt;br&gt;&lt;/span&gt;&lt;/div&gt;&lt;div style=&quot;text-align: left;&quot;&gt;&lt;span style=&quot;background-color: transparent;&quot;&gt;【郵便保険対応】&lt;/span&gt;&lt;/div&gt;&lt;div style=&quot;text-align: left;&quot;&gt;　・～2029年：保険料 1万円/月をメイン口座&lt;span style=&quot;background-color: transparent; color: light-dark(rgb(0, 0, 0), rgb(255, 255, 255));&quot;&gt;から受取&lt;/span&gt;&lt;/div&gt;&lt;div style=&quot;text-align: left;&quot;&gt;&lt;span style=&quot;background-color: transparent; color: light-dark(rgb(0, 0, 0), rgb(255, 255, 255));&quot;&gt;　・2029年　：満期保険金 100万円を&lt;/span&gt;&lt;span style=&quot;background-color: transparent; color: light-dark(rgb(0, 0, 0), rgb(255, 255, 255));&quot;&gt;メイン口座に振込&lt;/span&gt;&lt;/div&gt;&lt;div style=&quot;text-align: left;&quot;&gt;&lt;div&gt;&lt;br&gt;&lt;/div&gt;&lt;/div&gt;&lt;/div&gt;&lt;/div&gt;&lt;/div&gt;&lt;/div&gt;" style="rounded=0;whiteSpace=wrap;html=1;align=center;fillColor=#f8cecc;strokeColor=#FF0000;" parent="AfMFDSuWOlXhKq_SSR3L-1" vertex="1">
          <mxGeometry x="2841" y="-155" width="319" height="362" as="geometry" />
        </mxCell>
        <mxCell id="AfMFDSuWOlXhKq_SSR3L-15" value="&lt;div&gt;&lt;div style=&quot;&quot;&gt;&lt;b style=&quot;&quot;&gt;&lt;u&gt;&lt;font style=&quot;font-size: 16px;&quot;&gt;共用口座&lt;/font&gt;&lt;/u&gt;&lt;/b&gt;&lt;div style=&quot;text-align: center;&quot;&gt;&lt;div&gt;&lt;b&gt;&lt;font style=&quot;font-size: 14px;&quot;&gt;　&lt;/font&gt;&lt;/b&gt;&lt;/div&gt;&lt;div&gt;&lt;font style=&quot;font-size: 14px;&quot;&gt;（共通出費用）&lt;/font&gt;&lt;/div&gt;&lt;/div&gt;&lt;/div&gt;&lt;div style=&quot;text-align: left;&quot;&gt;&lt;br&gt;&lt;/div&gt;&lt;div style=&quot;text-align: left;&quot;&gt;【年収入】&lt;span style=&quot;white-space: pre;&quot;&gt;&#x9;&lt;/span&gt;&lt;span style=&quot;background-color: transparent; color: light-dark(rgb(0, 0, 0), rgb(255, 255, 255));&quot;&gt;（400＋α｡ α値は年頭計画にて決定）&lt;/span&gt;&lt;/div&gt;&lt;div style=&quot;text-align: left;&quot;&gt;・手動振込&lt;span style=&quot;white-space: pre;&quot;&gt;&#x9;&lt;/span&gt;&lt;/div&gt;&lt;div style=&quot;text-align: left;&quot;&gt;&lt;br&gt;&lt;/div&gt;&lt;div style=&quot;text-align: left;&quot;&gt;【年支出】&lt;span style=&quot;white-space: pre;&quot;&gt;&#x9;&lt;/span&gt;（338＋α）&lt;/div&gt;&lt;div style=&quot;text-align: left;&quot;&gt;&lt;div&gt;&lt;span style=&quot;background-color: transparent; color: light-dark(rgb(0, 0, 0), rgb(255, 255, 255));&quot;&gt;・交際費：年賀､お年玉,同期&lt;span style=&quot;white-space: pre;&quot;&gt;&#x9;&lt;/span&gt;&lt;span style=&quot;white-space: pre;&quot;&gt;&#x9;&lt;/span&gt;&lt;span style=&quot;white-space: pre;&quot;&gt;&#x9;&lt;/span&gt;&lt;span style=&quot;white-space: pre;&quot;&gt;&#x9;&lt;/span&gt;&amp;nbsp; &amp;nbsp; &amp;nbsp;&lt;/span&gt;（&lt;span style=&quot;background-color: transparent; color: light-dark(rgb(0, 0, 0), rgb(255, 255, 255));&quot;&gt;10）&lt;/span&gt;&lt;/div&gt;&lt;div&gt;&lt;div style=&quot;text-align: center;&quot;&gt;&lt;div style=&quot;text-align: left;&quot;&gt;&lt;span style=&quot;background-color: transparent; color: light-dark(rgb(0, 0, 0), rgb(255, 255, 255));&quot;&gt;・慶弔費：結婚祝､法事､香典&lt;span style=&quot;white-space: pre;&quot;&gt;&#x9;&lt;span style=&quot;white-space: pre;&quot;&gt;&#x9;&lt;/span&gt;&lt;span style=&quot;white-space: pre;&quot;&gt;&#x9;&lt;/span&gt;&lt;span style=&quot;white-space: pre;&quot;&gt;&#x9;&lt;/span&gt; &lt;/span&gt;&amp;nbsp; &amp;nbsp; （6）&lt;/span&gt;&lt;br&gt;&lt;/div&gt;&lt;/div&gt;&lt;div&gt;&lt;span style=&quot;background-color: transparent; color: light-dark(rgb(0, 0, 0), rgb(255, 255, 255));&quot;&gt;・神仏費：&lt;/span&gt;&lt;font style=&quot;background-color: transparent; color: light-dark(rgb(0, 0, 0), rgb(255, 255, 255));&quot;&gt;墓､西源寺､&lt;/font&gt;&lt;span style=&quot;background-color: transparent; color: light-dark(rgb(0, 0, 0), rgb(255, 255, 255));&quot;&gt;鎌倉､春日､金華山､出雲　&amp;nbsp; (10)&lt;/span&gt;&lt;/div&gt;&lt;/div&gt;&lt;div&gt;&lt;div style=&quot;text-align: center;&quot;&gt;&lt;div style=&quot;text-align: left;&quot;&gt;&lt;span style=&quot;background-color: transparent; color: light-dark(rgb(0, 0, 0), rgb(255, 255, 255));&quot;&gt;・医療費：カイロ､歯医者､健康診断&lt;span style=&quot;white-space: pre;&quot;&gt;&#x9;&lt;span style=&quot;white-space: pre;&quot;&gt;&#x9;&lt;/span&gt; &lt;/span&gt;&amp;nbsp; &amp;nbsp; （60）&lt;/span&gt;&lt;br&gt;&lt;/div&gt;&lt;/div&gt;&lt;div&gt;&lt;div&gt;&lt;span style=&quot;background-color: transparent; color: light-dark(rgb(0, 0, 0), rgb(255, 255, 255));&quot;&gt;・年会費：大人の休日倶楽部､ドコモ&lt;span style=&quot;white-space: pre;&quot;&gt;&#x9;&lt;/span&gt;&lt;span style=&quot;white-space: pre;&quot;&gt;&#x9;&lt;/span&gt;&amp;nbsp; &amp;nbsp; &amp;nbsp;（2）&lt;/span&gt;&lt;br&gt;&lt;/div&gt;&lt;div&gt;&lt;div&gt;&lt;span style=&quot;background-color: initial; color: light-dark(rgb(0, 0, 0), rgb(255, 255, 255));&quot;&gt;・通信費：光ケーブル,スマホ､NHK&lt;span style=&quot;white-space: pre;&quot;&gt;&#x9;&lt;span style=&quot;white-space: pre;&quot;&gt;&#x9;&lt;/span&gt; &lt;/span&gt;&amp;nbsp; &amp;nbsp; （40）&lt;/span&gt;&lt;br&gt;&lt;/div&gt;&lt;div&gt;&lt;div&gt;&lt;span style=&quot;background-color: transparent; color: light-dark(rgb(0, 0, 0), rgb(255, 255, 255));&quot;&gt;・教養娯楽費：&lt;/span&gt;&lt;span style=&quot;background-color: transparent; color: light-dark(rgb(0, 0, 0), rgb(255, 255, 255));&quot;&gt;ダンス､書籍､udemy､映画&lt;span style=&quot;white-space: pre;&quot;&gt;&#x9;&amp;nbsp;&lt;/span&gt;&amp;nbsp; &amp;nbsp; （40）&lt;/span&gt;&lt;br&gt;&lt;/div&gt;&lt;/div&gt;&lt;/div&gt;&lt;div&gt;&lt;div&gt;&lt;span style=&quot;background-color: transparent; color: light-dark(rgb(0, 0, 0), rgb(255, 255, 255));&quot;&gt;・日用費：食料品,森永牛乳,衣服,雑貨&lt;span style=&quot;white-space: pre;&quot;&gt;&#x9;&lt;span style=&quot;white-space: pre;&quot;&gt;&#x9;&lt;/span&gt; &lt;/span&gt;&amp;nbsp; &amp;nbsp; （80）&lt;/span&gt;&lt;br&gt;&lt;/div&gt;&lt;div&gt;&lt;div&gt;&lt;span style=&quot;background-color: transparent; color: light-dark(rgb(0, 0, 0), rgb(255, 255, 255));&quot;&gt;・外食費：飲食代&lt;span style=&quot;white-space: pre;&quot;&gt;&#x9;&lt;/span&gt;&lt;span style=&quot;white-space: pre;&quot;&gt;&#x9;&lt;/span&gt;&lt;span style=&quot;white-space: pre;&quot;&gt;&#x9;&lt;/span&gt;&lt;span style=&quot;white-space: pre;&quot;&gt;&#x9;&lt;/span&gt;&lt;span style=&quot;white-space: pre;&quot;&gt;&#x9;&lt;span style=&quot;white-space: pre;&quot;&gt;&#x9;&lt;/span&gt;     &lt;/span&gt;（30）&lt;/span&gt;&lt;/div&gt;&lt;/div&gt;&lt;/div&gt;&lt;div&gt;&lt;span style=&quot;background-color: transparent; color: light-dark(rgb(0, 0, 0), rgb(255, 255, 255));&quot;&gt;・保険払：&lt;/span&gt;&lt;span style=&quot;background-color: transparent; color: light-dark(rgb(0, 0, 0), rgb(255, 255, 255));&quot;&gt;郵便保険､日本生命&lt;span style=&quot;white-space: pre;&quot;&gt;&#x9;&lt;/span&gt;&lt;span style=&quot;white-space: pre;&quot;&gt;&#x9;&lt;span style=&quot;white-space: pre;&quot;&gt;&#x9;&lt;/span&gt;     &lt;/span&gt;（60）&lt;/span&gt;&lt;br&gt;&lt;/div&gt;&lt;/div&gt;&lt;/div&gt;&lt;/div&gt;&lt;/div&gt;&lt;div style=&quot;text-align: left;&quot;&gt;&lt;div&gt;&lt;span style=&quot;background-color: transparent; color: light-dark(rgb(0, 0, 0), rgb(255, 255, 255));&quot;&gt;＊旅行費：交通費､食事費､宿泊費､土産&lt;span style=&quot;white-space: pre;&quot;&gt;&#x9;&lt;/span&gt;&lt;span style=&quot;white-space: pre;&quot;&gt;&#x9;     &lt;/span&gt;（α1）&lt;/span&gt;&lt;br&gt;&lt;/div&gt;&lt;div&gt;&lt;/div&gt;&lt;div&gt;&lt;span style=&quot;background-color: transparent; color: light-dark(rgb(0, 0, 0), rgb(255, 255, 255));&quot;&gt;＊修繕費：住居修理，リフォーム　&lt;span style=&quot;white-space: pre;&quot;&gt;&#x9;&lt;/span&gt;&lt;span style=&quot;white-space: pre;&quot;&gt;&#x9;&lt;/span&gt;&amp;nbsp; &amp;nbsp; &amp;nbsp;（α2）&lt;/span&gt;&lt;br&gt;&lt;/div&gt;&lt;div&gt;&lt;span style=&quot;background-color: transparent; color: light-dark(rgb(0, 0, 0), rgb(255, 255, 255));&quot;&gt;＊家電費：TV,レコーダー､便座&lt;span style=&quot;white-space: pre;&quot;&gt;&#x9;&lt;/span&gt;&lt;span style=&quot;white-space: pre;&quot;&gt;&#x9;&lt;/span&gt;&lt;span style=&quot;white-space: pre;&quot;&gt;&#x9;&lt;/span&gt;　 （α3）&lt;/span&gt;&lt;/div&gt;&lt;div&gt;&lt;span style=&quot;background-color: transparent; color: light-dark(rgb(0, 0, 0), rgb(255, 255, 255));&quot;&gt;&lt;br&gt;&lt;/span&gt;&lt;/div&gt;&lt;div&gt;&lt;/div&gt;&lt;/div&gt;" style="rounded=0;whiteSpace=wrap;html=1;align=center;" parent="AfMFDSuWOlXhKq_SSR3L-1" vertex="1">
          <mxGeometry x="2200" y="-154" width="320" height="360" as="geometry" />
        </mxCell>
        <mxCell id="AfMFDSuWOlXhKq_SSR3L-16" value="恰好内の数字は目安額（単位：万円）" style="text;whiteSpace=wrap;fontSize=24;" parent="AfMFDSuWOlXhKq_SSR3L-1" vertex="1">
          <mxGeometry x="2990" y="811" width="410" height="40" as="geometry" />
        </mxCell>
        <mxCell id="AfMFDSuWOlXhKq_SSR3L-17" value="&lt;font style=&quot;font-size: 18px;&quot;&gt;&lt;b style=&quot;&quot;&gt;kaz&lt;/b&gt;&lt;/font&gt;" style="shape=umlActor;verticalLabelPosition=bottom;verticalAlign=top;html=1;outlineConnect=0;align=left;fontColor=#0000FF;strokeColor=#0000FF;strokeWidth=3.1496;" parent="AfMFDSuWOlXhKq_SSR3L-1" vertex="1">
          <mxGeometry x="2019" y="5" width="40" height="80" as="geometry" />
        </mxCell>
        <mxCell id="AfMFDSuWOlXhKq_SSR3L-18" value="&lt;font style=&quot;color: rgb(255, 0, 128); font-size: 18px;&quot;&gt;&lt;b style=&quot;&quot;&gt;nao&lt;/b&gt;&lt;/font&gt;" style="shape=umlActor;verticalLabelPosition=bottom;verticalAlign=top;html=1;outlineConnect=0;strokeColor=#FF0080;strokeWidth=3.1496;" parent="AfMFDSuWOlXhKq_SSR3L-1" vertex="1">
          <mxGeometry x="2660" y="5" width="40" height="80" as="geometry" />
        </mxCell>
        <mxCell id="AfMFDSuWOlXhKq_SSR3L-19" value="" style="shape=flexArrow;endArrow=classic;html=1;rounded=0;fillColor=#0000FF;strokeColor=#0000CC;exitX=0.002;exitY=0.557;exitDx=0;exitDy=0;exitPerimeter=0;" parent="AfMFDSuWOlXhKq_SSR3L-1" source="AfMFDSuWOlXhKq_SSR3L-15" edge="1">
          <mxGeometry width="50" height="50" relative="1" as="geometry">
            <mxPoint x="2198" y="47" as="sourcePoint" />
            <mxPoint x="2060" y="47" as="targetPoint" />
          </mxGeometry>
        </mxCell>
        <mxCell id="AfMFDSuWOlXhKq_SSR3L-20" value="&lt;b&gt;&lt;font style=&quot;color: rgb(0, 0, 255);&quot;&gt;代理人カード引出&lt;/font&gt;&lt;/b&gt;" style="edgeLabel;html=1;align=center;verticalAlign=middle;resizable=0;points=[];" parent="AfMFDSuWOlXhKq_SSR3L-19" vertex="1" connectable="0">
          <mxGeometry x="0.1976" relative="1" as="geometry">
            <mxPoint x="20" y="-20" as="offset" />
          </mxGeometry>
        </mxCell>
        <mxCell id="AfMFDSuWOlXhKq_SSR3L-21" value="" style="shape=flexArrow;endArrow=classic;html=1;rounded=0;fillColor=#FF0080;strokeColor=#CC0066;" parent="AfMFDSuWOlXhKq_SSR3L-1" edge="1">
          <mxGeometry width="50" height="50" relative="1" as="geometry">
            <mxPoint x="2520" y="47" as="sourcePoint" />
            <mxPoint x="2660" y="47" as="targetPoint" />
          </mxGeometry>
        </mxCell>
        <mxCell id="AfMFDSuWOlXhKq_SSR3L-22" value="&lt;font style=&quot;color: rgb(255, 0, 128);&quot;&gt;&lt;b&gt;名義人カード引出&lt;/b&gt;&lt;/font&gt;" style="edgeLabel;html=1;align=center;verticalAlign=middle;resizable=0;points=[];" parent="AfMFDSuWOlXhKq_SSR3L-21" vertex="1" connectable="0">
          <mxGeometry x="-0.1576" y="3" relative="1" as="geometry">
            <mxPoint x="7" y="-17" as="offset" />
          </mxGeometry>
        </mxCell>
        <mxCell id="AfMFDSuWOlXhKq_SSR3L-23" value="" style="shape=flexArrow;endArrow=classic;startArrow=classic;html=1;rounded=0;strokeColor=#0000FF;fillColor=#0000FF;" parent="AfMFDSuWOlXhKq_SSR3L-1" edge="1">
          <mxGeometry width="100" height="100" relative="1" as="geometry">
            <mxPoint x="1880" y="47" as="sourcePoint" />
            <mxPoint x="2020" y="47" as="targetPoint" />
          </mxGeometry>
        </mxCell>
        <mxCell id="AfMFDSuWOlXhKq_SSR3L-24" value="&lt;b&gt;&lt;font style=&quot;color: rgb(0, 0, 255);&quot;&gt;カード使用&lt;/font&gt;&lt;/b&gt;" style="edgeLabel;html=1;align=center;verticalAlign=middle;resizable=0;points=[];" parent="AfMFDSuWOlXhKq_SSR3L-23" vertex="1" connectable="0">
          <mxGeometry x="0.3035" y="4" relative="1" as="geometry">
            <mxPoint x="-18" y="-16" as="offset" />
          </mxGeometry>
        </mxCell>
        <mxCell id="AfMFDSuWOlXhKq_SSR3L-25" value="" style="shape=flexArrow;endArrow=classic;startArrow=classic;html=1;rounded=0;strokeColor=#FF0080;fillColor=#FF0080;" parent="AfMFDSuWOlXhKq_SSR3L-1" source="AfMFDSuWOlXhKq_SSR3L-18" edge="1">
          <mxGeometry width="100" height="100" relative="1" as="geometry">
            <mxPoint x="2720" y="47" as="sourcePoint" />
            <mxPoint x="2840" y="47" as="targetPoint" />
          </mxGeometry>
        </mxCell>
        <mxCell id="AfMFDSuWOlXhKq_SSR3L-26" value="&lt;b&gt;&lt;font style=&quot;color: rgb(255, 0, 128);&quot;&gt;カード使用&lt;/font&gt;&lt;/b&gt;" style="edgeLabel;html=1;align=center;verticalAlign=middle;resizable=0;points=[];" parent="AfMFDSuWOlXhKq_SSR3L-25" vertex="1" connectable="0">
          <mxGeometry x="0.3035" y="4" relative="1" as="geometry">
            <mxPoint x="-18" y="-16" as="offset" />
          </mxGeometry>
        </mxCell>
        <mxCell id="AfMFDSuWOlXhKq_SSR3L-27" value="&lt;font style=&quot;font-size: 17px;&quot;&gt;りそな銀行_綱島店　(kaz)&lt;/font&gt;" style="rounded=0;whiteSpace=wrap;html=1;fontStyle=0" parent="AfMFDSuWOlXhKq_SSR3L-1" vertex="1">
          <mxGeometry x="2200" y="447" width="320" height="40" as="geometry" />
        </mxCell>
        <mxCell id="AfMFDSuWOlXhKq_SSR3L-28" value="&lt;div style=&quot;&quot;&gt;&lt;b style=&quot;&quot;&gt;&lt;u&gt;&lt;font style=&quot;font-size: 16px;&quot;&gt;非常時用口座&lt;/font&gt;&lt;/u&gt;&lt;/b&gt;&lt;div style=&quot;text-align: center;&quot;&gt;&lt;div&gt;&lt;b&gt;&lt;font style=&quot;font-size: 14px;&quot;&gt;　&lt;/font&gt;&lt;/b&gt;&lt;/div&gt;&lt;div&gt;&lt;span style=&quot;text-align: left; background-color: transparent; color: light-dark(rgb(0, 0, 0), rgb(255, 255, 255));&quot;&gt;【年収入】&lt;/span&gt;&lt;span style=&quot;text-align: left; background-color: transparent; color: light-dark(rgb(0, 0, 0), rgb(255, 255, 255)); white-space: pre;&quot;&gt;&#x9;&lt;/span&gt;&lt;span style=&quot;text-align: left; background-color: transparent; color: light-dark(rgb(0, 0, 0), rgb(255, 255, 255));&quot;&gt;（0）&lt;/span&gt;&lt;/div&gt;&lt;/div&gt;&lt;/div&gt;&lt;div style=&quot;text-align: left;&quot;&gt;・雑収入：利息&lt;span style=&quot;white-space: pre;&quot;&gt;&#x9;&lt;/span&gt;&lt;span style=&quot;white-space: pre;&quot;&gt;&#x9;&lt;/span&gt;&lt;span style=&quot;white-space: pre;&quot;&gt;&#x9;&lt;/span&gt;&lt;span style=&quot;white-space: pre;&quot;&gt;&#x9;&lt;/span&gt;&lt;span style=&quot;white-space: pre;&quot;&gt;&#x9;&lt;/span&gt;&lt;span style=&quot;white-space: pre;&quot;&gt;&#x9;&lt;/span&gt;&lt;span style=&quot;white-space: pre;&quot;&gt;&#x9;&lt;/span&gt;(0)&lt;span style=&quot;white-space: pre;&quot;&gt;&#x9;&lt;/span&gt;&lt;/div&gt;&lt;div style=&quot;text-align: left;&quot;&gt;&lt;br&gt;&lt;/div&gt;&lt;div style=&quot;text-align: left;&quot;&gt;【年支出】&lt;span style=&quot;white-space: pre;&quot;&gt;&#x9;&lt;/span&gt;（非常時に発生）&lt;/div&gt;&lt;div style=&quot;text-align: left;&quot;&gt;&lt;div&gt;・？？&lt;span style=&quot;white-space: pre;&quot;&gt;&#x9;&lt;/span&gt;&lt;span style=&quot;white-space: pre;&quot;&gt;&#x9;&lt;/span&gt;&lt;span style=&quot;white-space: pre;&quot;&gt;&#x9;&lt;/span&gt;&lt;span style=&quot;white-space: pre;&quot;&gt;&#x9;&lt;/span&gt;&lt;span style=&quot;white-space: pre;&quot;&gt;&#x9;&lt;/span&gt;&lt;span style=&quot;white-space: pre;&quot;&gt;&#x9;&lt;/span&gt;&lt;span style=&quot;white-space: pre;&quot;&gt;&#x9;&lt;/span&gt;&lt;span style=&quot;white-space: pre;&quot;&gt;&#x9;&lt;/span&gt;&lt;span style=&quot;white-space: pre;&quot;&gt;&#x9;&lt;/span&gt;(0)&lt;/div&gt;&lt;div&gt;&lt;br&gt;&lt;/div&gt;&lt;div&gt;&lt;br&gt;&lt;/div&gt;&lt;/div&gt;" style="rounded=0;whiteSpace=wrap;html=1;align=center;" parent="AfMFDSuWOlXhKq_SSR3L-1" vertex="1">
          <mxGeometry x="2200" y="487" width="320" height="163" as="geometry" />
        </mxCell>
        <mxCell id="AfMFDSuWOlXhKq_SSR3L-29" value="&lt;font style=&quot;font-size: 17px;&quot;&gt;ゆうちょ銀行_新潟大野店　(kaz)&lt;/font&gt;" style="rounded=0;whiteSpace=wrap;html=1;fontStyle=0" parent="AfMFDSuWOlXhKq_SSR3L-1" vertex="1">
          <mxGeometry x="1560" y="447" width="320" height="40" as="geometry" />
        </mxCell>
        <mxCell id="AfMFDSuWOlXhKq_SSR3L-30" value="&lt;div style=&quot;&quot;&gt;&lt;b style=&quot;&quot;&gt;&lt;u&gt;&lt;font style=&quot;font-size: 16px;&quot;&gt;新潟実家用口座&lt;/font&gt;&lt;/u&gt;&lt;/b&gt;&lt;div style=&quot;text-align: center;&quot;&gt;&lt;br&gt;&lt;/div&gt;&lt;/div&gt;&lt;div style=&quot;text-align: left;&quot;&gt;&lt;br&gt;&lt;/div&gt;&lt;div style=&quot;text-align: left;&quot;&gt;【年収入】&lt;span style=&quot;white-space: pre;&quot;&gt;&#x9;&lt;/span&gt;&lt;span style=&quot;background-color: transparent; color: light-dark(rgb(0, 0, 0), rgb(255, 255, 255));&quot;&gt;（0）&lt;/span&gt;&lt;/div&gt;&lt;div style=&quot;text-align: left;&quot;&gt;・雑収入：利息&lt;span style=&quot;white-space: pre;&quot;&gt;&#x9;&lt;/span&gt;&lt;span style=&quot;white-space: pre;&quot;&gt;&#x9;&lt;/span&gt;&lt;span style=&quot;white-space: pre;&quot;&gt;&#x9;&lt;/span&gt;&lt;span style=&quot;white-space: pre;&quot;&gt;&#x9;&lt;/span&gt;&lt;span style=&quot;white-space: pre;&quot;&gt;&#x9;&lt;/span&gt;&lt;span style=&quot;white-space: pre;&quot;&gt;&#x9;&lt;/span&gt;&lt;span style=&quot;white-space: pre;&quot;&gt;&#x9;&lt;/span&gt;(0)&lt;span style=&quot;white-space: pre;&quot;&gt;&#x9;&lt;/span&gt;&lt;/div&gt;&lt;div style=&quot;text-align: left;&quot;&gt;&lt;br&gt;&lt;/div&gt;&lt;div style=&quot;text-align: left;&quot;&gt;【年支出】&lt;span style=&quot;white-space: pre;&quot;&gt;&#x9;&lt;/span&gt;（7）&lt;/div&gt;&lt;div style=&quot;text-align: left;&quot;&gt;&lt;div&gt;・光熱費：電気､ガス､水道&lt;span style=&quot;white-space: pre;&quot;&gt;&#x9;&lt;/span&gt;&lt;span style=&quot;white-space: pre;&quot;&gt;&#x9;&lt;/span&gt;&lt;span style=&quot;white-space: pre;&quot;&gt;&#x9;&lt;/span&gt;&lt;span style=&quot;white-space: pre;&quot;&gt;&#x9;&lt;/span&gt;&lt;span style=&quot;white-space: pre;&quot;&gt;&#x9;&lt;/span&gt;(5)&lt;/div&gt;&lt;div&gt;・税金：新潟市固都税税&lt;span style=&quot;white-space: pre;&quot;&gt;&#x9;&lt;/span&gt;&lt;span style=&quot;white-space: pre;&quot;&gt;&#x9;&lt;/span&gt;&lt;span style=&quot;white-space: pre;&quot;&gt;&#x9;&lt;span style=&quot;white-space: pre;&quot;&gt;&#x9;&lt;/span&gt;&lt;/span&gt;&lt;span style=&quot;white-space: pre;&quot;&gt;&#x9;&lt;/span&gt;(2)&lt;/div&gt;&lt;/div&gt;" style="rounded=0;whiteSpace=wrap;html=1;align=center;" parent="AfMFDSuWOlXhKq_SSR3L-1" vertex="1">
          <mxGeometry x="1560" y="487" width="320" height="163" as="geometry" />
        </mxCell>
        <mxCell id="AfMFDSuWOlXhKq_SSR3L-31" value="" style="endArrow=classic;startArrow=classic;html=1;rounded=0;exitX=0.5;exitY=0;exitDx=0;exitDy=0;strokeColor=#0000FF;" parent="AfMFDSuWOlXhKq_SSR3L-1" source="AfMFDSuWOlXhKq_SSR3L-29" edge="1">
          <mxGeometry width="50" height="50" relative="1" as="geometry">
            <mxPoint x="1720" y="437" as="sourcePoint" />
            <mxPoint x="2010" y="107" as="targetPoint" />
          </mxGeometry>
        </mxCell>
        <mxCell id="AfMFDSuWOlXhKq_SSR3L-32" value="" style="endArrow=classic;startArrow=classic;html=1;rounded=0;exitX=0.5;exitY=0;exitDx=0;exitDy=0;strokeColor=#0000FF;" parent="AfMFDSuWOlXhKq_SSR3L-1" edge="1">
          <mxGeometry width="50" height="50" relative="1" as="geometry">
            <mxPoint x="2360" y="447" as="sourcePoint" />
            <mxPoint x="2070" y="107" as="targetPoint" />
          </mxGeometry>
        </mxCell>
        <mxCell id="AfMFDSuWOlXhKq_SSR3L-33" value="2025/3/15：58万円から開始" style="text;whiteSpace=wrap;fontSize=20;fontColor=#0000FF;" parent="AfMFDSuWOlXhKq_SSR3L-1" vertex="1">
          <mxGeometry x="1270" y="-155" width="265" height="40" as="geometry" />
        </mxCell>
        <mxCell id="AfMFDSuWOlXhKq_SSR3L-34" value="2025/3/15：50万円から開始" style="text;whiteSpace=wrap;fontSize=20;fontColor=#FF0000;" parent="AfMFDSuWOlXhKq_SSR3L-1" vertex="1">
          <mxGeometry x="3180" y="-152" width="270" height="40" as="geometry" />
        </mxCell>
        <mxCell id="AfMFDSuWOlXhKq_SSR3L-35" value="2025/3/15：400万円から開始" style="text;whiteSpace=wrap;fontSize=20;" parent="AfMFDSuWOlXhKq_SSR3L-1" vertex="1">
          <mxGeometry x="2530" y="-160" width="320" height="30" as="geometry" />
        </mxCell>
        <mxCell id="AfMFDSuWOlXhKq_SSR3L-36" value="2025年3月：1600万円から開始&#xa;                      ＋80？（SBI解約）" style="text;whiteSpace=wrap;fontSize=20;" parent="AfMFDSuWOlXhKq_SSR3L-1" vertex="1">
          <mxGeometry x="2526.5" y="-630" width="333.5" height="60" as="geometry" />
        </mxCell>
        <mxCell id="AfMFDSuWOlXhKq_SSR3L-37" value="&lt;div style=&quot;&quot;&gt;&lt;div style=&quot;text-align: center;&quot;&gt;&lt;div&gt;&lt;font style=&quot;font-size: 14px;&quot;&gt;(&lt;/font&gt;&lt;span style=&quot;font-size: 14px; background-color: transparent; color: light-dark(rgb(0, 0, 0), rgb(255, 255, 255));&quot;&gt;定期300 プール）&lt;/span&gt;&lt;/div&gt;&lt;/div&gt;&lt;/div&gt;&lt;div style=&quot;text-align: left;&quot;&gt;&lt;br&gt;&lt;/div&gt;&lt;div style=&quot;text-align: left;&quot;&gt;【年収入】&lt;span style=&quot;white-space: pre;&quot;&gt;&#x9;&lt;/span&gt;&lt;span style=&quot;background-color: transparent; color: light-dark(rgb(0, 0, 0), rgb(255, 255, 255));&quot;&gt;（0）&lt;/span&gt;&lt;/div&gt;&lt;div style=&quot;text-align: left;&quot;&gt;・雑収入：利息&lt;span style=&quot;white-space: pre;&quot;&gt;&#x9;&lt;/span&gt;&lt;span style=&quot;white-space: pre;&quot;&gt;&#x9;&lt;/span&gt;&lt;span style=&quot;white-space: pre;&quot;&gt;&#x9;&lt;/span&gt;&lt;span style=&quot;white-space: pre;&quot;&gt;&#x9;&lt;/span&gt;&lt;span style=&quot;white-space: pre;&quot;&gt;&#x9;&lt;/span&gt;&lt;span style=&quot;white-space: pre;&quot;&gt;&#x9;&lt;/span&gt;&lt;span style=&quot;white-space: pre;&quot;&gt;&#x9;&lt;/span&gt;(0)&lt;span style=&quot;white-space: pre;&quot;&gt;&#x9;&lt;/span&gt;&lt;/div&gt;&lt;div style=&quot;text-align: left;&quot;&gt;&lt;br&gt;&lt;/div&gt;&lt;div style=&quot;text-align: left;&quot;&gt;【年支出】&lt;span style=&quot;white-space: pre;&quot;&gt;&#x9;&lt;/span&gt;（非常時に発生）&lt;/div&gt;&lt;div style=&quot;text-align: left;&quot;&gt;&lt;div&gt;・？？&lt;span style=&quot;white-space: pre;&quot;&gt;&#x9;&lt;/span&gt;&lt;span style=&quot;white-space: pre;&quot;&gt;&#x9;&lt;/span&gt;&lt;span style=&quot;white-space: pre;&quot;&gt;&#x9;&lt;/span&gt;&lt;span style=&quot;white-space: pre;&quot;&gt;&#x9;&lt;/span&gt;&lt;span style=&quot;white-space: pre;&quot;&gt;&#x9;&lt;/span&gt;&lt;span style=&quot;white-space: pre;&quot;&gt;&#x9;&lt;/span&gt;&lt;span style=&quot;white-space: pre;&quot;&gt;&#x9;&lt;/span&gt;&lt;span style=&quot;white-space: pre;&quot;&gt;&#x9;&lt;/span&gt;&lt;span style=&quot;white-space: pre;&quot;&gt;&#x9;&lt;/span&gt;(0)&lt;/div&gt;&lt;/div&gt;" style="rounded=0;whiteSpace=wrap;html=1;align=center;" parent="AfMFDSuWOlXhKq_SSR3L-1" vertex="1">
          <mxGeometry x="2200" y="651" width="320" height="120" as="geometry" />
        </mxCell>
        <mxCell id="AfMFDSuWOlXhKq_SSR3L-38" value="&lt;div style=&quot;&quot;&gt;&lt;div style=&quot;text-align: center;&quot;&gt;&lt;div&gt;&lt;font style=&quot;font-size: 14px;&quot;&gt;(プルデンシャル介護保険&lt;/font&gt;&lt;span style=&quot;font-size: 14px; background-color: transparent; color: light-dark(rgb(0, 0, 0), rgb(255, 255, 255));&quot;&gt;）&lt;/span&gt;&lt;/div&gt;&lt;/div&gt;&lt;/div&gt;&lt;div style=&quot;text-align: left;&quot;&gt;&lt;br&gt;&lt;/div&gt;&lt;div style=&quot;text-align: left;&quot;&gt;2025/2/10　　300入金済（kaz分）&lt;/div&gt;&lt;div style=&quot;text-align: left;&quot;&gt;2025//9/?　　 300入金予定（nao分）&lt;/div&gt;" style="rounded=0;whiteSpace=wrap;html=1;align=center;" parent="AfMFDSuWOlXhKq_SSR3L-1" vertex="1">
          <mxGeometry x="2200" y="771" width="320" height="80" as="geometry" />
        </mxCell>
        <mxCell id="AfMFDSuWOlXhKq_SSR3L-39" value="2025/3/15：下記から開始&#xa;        普通503万円 （後日定期化）        &#xa;　    定期300万円&#xa;　    介護300万円" style="text;whiteSpace=wrap;fontSize=20;" parent="AfMFDSuWOlXhKq_SSR3L-1" vertex="1">
          <mxGeometry x="2533.75" y="500" width="376.25" height="100" as="geometry" />
        </mxCell>
        <mxCell id="AfMFDSuWOlXhKq_SSR3L-41" value="2025/3/15：180万円から開始" style="text;whiteSpace=wrap;fontSize=20;" parent="AfMFDSuWOlXhKq_SSR3L-1" vertex="1">
          <mxGeometry x="1280" y="500" width="260" height="40" as="geometry" />
        </mxCell>
        <mxCell id="HA4wxC6TQ8SAaSPXh1d9-1" value="" style="endArrow=none;html=1;rounded=0;strokeColor=#00CC00;strokeWidth=3.1496;align=left;" parent="AfMFDSuWOlXhKq_SSR3L-1" edge="1">
          <mxGeometry width="50" height="50" relative="1" as="geometry">
            <mxPoint x="2850" y="-330" as="sourcePoint" />
            <mxPoint x="2890" y="-370" as="targetPoint" />
          </mxGeometry>
        </mxCell>
        <mxCell id="HA4wxC6TQ8SAaSPXh1d9-3" value="&lt;div style=&quot;text-wrap-mode: wrap;&quot;&gt;&lt;span style=&quot;text-wrap-mode: nowrap;&quot;&gt;&lt;font style=&quot;color: rgb(0, 204, 0); font-size: 12px;&quot;&gt;本フローでは保険の入出金はメイン口座で行うことを原則とする。&lt;/font&gt;&lt;/span&gt;&lt;/div&gt;&lt;div style=&quot;text-wrap-mode: wrap;&quot;&gt;&lt;span style=&quot;text-wrap-mode: nowrap;&quot;&gt;&lt;font style=&quot;color: rgb(0, 204, 0); font-size: 12px;&quot;&gt;ただ郵便保険ではゆうちょ銀行で入出金行わなければならないので、&lt;/font&gt;&lt;/span&gt;&lt;/div&gt;&lt;div style=&quot;text-wrap-mode: wrap;&quot;&gt;&lt;span style=&quot;color: rgb(0, 204, 0); text-wrap-mode: nowrap; background-color: transparent;&quot;&gt;&lt;font style=&quot;font-size: 12px;&quot;&gt;下記のようにして原則に近づけることにする。&lt;/font&gt;&lt;/span&gt;&lt;/div&gt;&lt;div style=&quot;text-wrap-mode: wrap;&quot;&gt;&lt;font style=&quot;color: rgb(0, 204, 0); font-size: 12px;&quot;&gt;&lt;span style=&quot;text-wrap-mode: nowrap;&quot;&gt;・2029年までは、nao口座に保険料の&amp;nbsp;&lt;/span&gt;&lt;span style=&quot;text-wrap-mode: nowrap;&quot;&gt;1万円／月を上乗せして自動振込する&lt;/span&gt;&lt;/font&gt;&lt;/div&gt;&lt;div style=&quot;text-wrap-mode: wrap;&quot;&gt;&lt;font style=&quot;color: rgb(0, 204, 0); font-size: 12px;&quot;&gt;&lt;span style=&quot;text-wrap-mode: nowrap;&quot;&gt;・2029年の満期保険金100万円は、nao口座からメイン口座に手動振込する&lt;/span&gt;&lt;/font&gt;&lt;/div&gt;" style="edgeLabel;html=1;align=left;verticalAlign=middle;resizable=0;points=[];fontColor=#009900;fontStyle=1;labelBackgroundColor=none;" parent="HA4wxC6TQ8SAaSPXh1d9-1" vertex="1" connectable="0">
          <mxGeometry x="0.6" y="-3" relative="1" as="geometry">
            <mxPoint x="6" y="-40" as="offset" />
          </mxGeometry>
        </mxCell>
        <mxCell id="1WlYLgOskzP3YJ57XljQ-1" value="毎月16日にメイン口座と共用口座の残高確認を行い、&#xa;計画値から大きく外れないよう調整してする&#xa;&#xa;ただkazが大人の休日倶楽部カードで払う共用交通費は、&#xa;kaz口座から自動引落しされてしまうので、各月で&#xa;自動チャージされた金額を確認の上、代理人カードで&#xa;共用口座から現金で引落として受取ることにする。" style="text;whiteSpace=wrap;strokeColor=#FF0000;fontSize=14;fontStyle=1;fontColor=#FF0000;" parent="AfMFDSuWOlXhKq_SSR3L-1" vertex="1">
          <mxGeometry x="2900" y="-665" width="370" height="130" as="geometry" />
        </mxCell>
      </root>
    </mxGraphModel>
  </diagram>
</mxfile>
